<?xml version="1.0" encoding="UTF-8" standalone="no"?>
<svg
   height="16"
   width="16"
   version="1.1"
   id="svg1"
   xmlns="http://www.w3.org/2000/svg"
   xmlns:svg="http://www.w3.org/2000/svg">
  <defs
     id="defs1" />
  <path
     id="path1"
     style="isolation:auto;mix-blend-mode:normal;fill:#555761;marker:none"
     d="M 5.5 1 C 5.223 1 5 1.227 5 1.5 L 5 2 L 6 2 L 6 1.5 C 6 1.223 5.777 1 5.5 1 z M 6 2 L 6 2.5 A 0.5 0.5 0 0 1 5 2.5 L 5 2 L 3.5 2 C 2.669 2 2 2.669 2 3.5 L 2 12.5 C 2 13.331 2.669 14 3.5 14 L 9.0839844 14 C 9.0290936 13.84374 9 13.675482 9 13.5 L 9 13 L 3.5 13 A 0.499 0.499 0 0 1 3 12.5 L 3 6.5 C 3 6.223 3.223 6 3.5 6 L 12.5 6 C 12.777 6 13 6.223 13 6.5 L 13 9 L 13.5 9 C 13.675482 9 13.84374 9.0290936 14 9.0839844 L 14 3.5 C 14 2.669 13.331 2 12.5 2 L 11 2 L 11 2.5 A 0.5 0.5 0 0 1 10 2.5 L 10 2 L 6 2 z M 10 2 L 11 2 L 11 1.5 A 0.5 0.5 0 0 0 10 1.5 L 10 2 z " />
  <path
     style="font-variation-settings:normal;vector-effect:none;fill:#555761;fill-opacity:1;stroke:none;stroke-width:1.50001;stroke-linecap:butt;stroke-linejoin:miter;stroke-miterlimit:4;stroke-dasharray:none;stroke-dashoffset:0;stroke-opacity:1;marker:none;stop-color:#000000"
     d="M 12.5,10 C 12.223,10 12,10.223 12,10.5 V 12 H 10.5 C 10.223,12 10,12.223 10,12.5 v 1 c 0,0.277 0.223,0.5 0.5,0.5 H 12 v 1.5 c 0,0.277 0.223,0.5 0.5,0.5 h 1 C 13.777,16 14,15.777 14,15.5 V 14 h 1.5 c 0.277,0 0.5,-0.223 0.5,-0.5 v -1 C 16,12.223 15.777,12 15.5,12 H 14 V 10.5 C 14,10.223 13.777,10 13.5,10 Z"
     id="path2" />
</svg>
