<?xml version="1.0" encoding="UTF-8" standalone="no"?>
<svg
   version="1.1"
   width="32"
   height="32"
   id="svg6860"
   xmlns:xlink="http://www.w3.org/1999/xlink"
   xmlns="http://www.w3.org/2000/svg"
   xmlns:svg="http://www.w3.org/2000/svg"
   xmlns:rdf="http://www.w3.org/1999/02/22-rdf-syntax-ns#"
   xmlns:cc="http://creativecommons.org/ns#"
   xmlns:dc="http://purl.org/dc/elements/1.1/">
  <defs
     id="defs6862">
    <linearGradient
       id="linearGradient3924-0">
      <stop
         id="stop3926-6"
         style="stop-color:#ffffff;stop-opacity:1"
         offset="0" />
      <stop
         id="stop3928-3"
         style="stop-color:#ffffff;stop-opacity:0.23529412"
         offset="0.06316455" />
      <stop
         id="stop3930-2"
         style="stop-color:#ffffff;stop-opacity:0.15686275"
         offset="0.95056331" />
      <stop
         id="stop3932-62"
         style="stop-color:#ffffff;stop-opacity:0.39215687"
         offset="1" />
    </linearGradient>
    <linearGradient
       id="linearGradient3688-166-749-6">
      <stop
         id="stop2883-8"
         style="stop-color:#181818;stop-opacity:1"
         offset="0" />
      <stop
         id="stop2885-3"
         style="stop-color:#181818;stop-opacity:0"
         offset="1" />
    </linearGradient>
    <linearGradient
       id="linearGradient3702-501-757-3">
      <stop
         id="stop2895-3"
         style="stop-color:#181818;stop-opacity:0"
         offset="0" />
      <stop
         id="stop2897-28"
         style="stop-color:#181818;stop-opacity:1"
         offset="0.5" />
      <stop
         id="stop2899-8"
         style="stop-color:#181818;stop-opacity:0"
         offset="1" />
    </linearGradient>
    <linearGradient
       id="linearGradient4658-9">
      <stop
         id="stop4660-8"
         style="stop-color:#fafafa;stop-opacity:1"
         offset="0" />
      <stop
         id="stop4662-7"
         style="stop-color:#e2e1de;stop-opacity:1"
         offset="1" />
    </linearGradient>
    <linearGradient
       id="linearGradient3924-0-3">
      <stop
         id="stop3926-6-4"
         style="stop-color:#ffffff;stop-opacity:1"
         offset="0" />
      <stop
         id="stop3928-3-03"
         style="stop-color:#ffffff;stop-opacity:0.23529412"
         offset="0.04199771" />
      <stop
         id="stop3930-2-7"
         style="stop-color:#ffffff;stop-opacity:0.15686275"
         offset="0.95056331" />
      <stop
         id="stop3932-62-8"
         style="stop-color:#ffffff;stop-opacity:0.39215687"
         offset="1" />
    </linearGradient>
    <linearGradient
       id="linearGradient3510-9-7">
      <stop
         id="stop3512-9-6"
         style="stop-color:#7a0000;stop-opacity:1"
         offset="0" />
      <stop
         id="stop3514-9-1"
         style="stop-color:#ff8c82;stop-opacity:0;"
         offset="1" />
    </linearGradient>
    <linearGradient
       id="linearGradient1">
      <stop
         style="stop-color:#ed5353;stop-opacity:1"
         offset="0"
         id="stop3" />
      <stop
         style="stop-color:#c6262e;stop-opacity:1"
         offset="1"
         id="stop4" />
    </linearGradient>
    <radialGradient
       cx="4.9929786"
       cy="43.5"
       r="2.5"
       fx="4.9929786"
       fy="43.5"
       id="radialGradient4002-4"
       xlink:href="#linearGradient3688-166-749-6"
       gradientUnits="userSpaceOnUse"
       gradientTransform="matrix(2.003784,0,0,1.4,27.98813,-17.4)" />
    <radialGradient
       cx="4.9929786"
       cy="43.5"
       r="2.5"
       fx="4.9929786"
       fy="43.5"
       id="radialGradient4004-0"
       xlink:href="#linearGradient3688-166-749-6"
       gradientUnits="userSpaceOnUse"
       gradientTransform="matrix(2.003784,0,0,1.4,-20.01187,-104.4)" />
    <linearGradient
       x1="25.058096"
       y1="47.027729"
       x2="25.058096"
       y2="39.999443"
       id="linearGradient4006-7"
       xlink:href="#linearGradient3702-501-757-3"
       gradientUnits="userSpaceOnUse" />
    <linearGradient
       x1="25.132275"
       y1="15.499894"
       x2="25.132275"
       y2="48.395687"
       id="linearGradient4059-1-7"
       xlink:href="#linearGradient4658-9"
       gradientUnits="userSpaceOnUse"
       gradientTransform="matrix(0.56307783,0,0,0.53992403,2.4861325,2.5424513)" />
    <linearGradient
       x1="23.99999"
       y1="4.999989"
       x2="23.99999"
       y2="43"
       id="linearGradient3223-6"
       xlink:href="#linearGradient3924-0"
       gradientUnits="userSpaceOnUse"
       gradientTransform="matrix(0.67567568,0,0,0.64864865,-0.21621703,0.93244198)" />
    <linearGradient
       x1="23.954144"
       y1="15.999304"
       x2="23.954144"
       y2="19.963179"
       id="linearGradient4056-5"
       xlink:href="#linearGradient3510-9-7"
       gradientUnits="userSpaceOnUse"
       gradientTransform="matrix(0.69999998,0,0,0.37499999,-0.80000019,4.000002)" />
    <linearGradient
       xlink:href="#linearGradient1"
       id="linearGradient2006-9"
       gradientUnits="userSpaceOnUse"
       gradientTransform="matrix(0.69230769,0,0,0.69620253,31.115384,-1.6582275)"
       x1="-23.277777"
       y1="6.0023599"
       x2="-23.277777"
       y2="25.138275" />
    <linearGradient
       x1="23.99999"
       y1="4.6956372"
       x2="23.99999"
       y2="43"
       id="linearGradient4307-1"
       xlink:href="#linearGradient3924-0-3"
       gradientUnits="userSpaceOnUse"
       gradientTransform="matrix(0.62162164,0,0,0.62162164,0.0810794,1.0810903)" />
  </defs>
  <metadata
     id="metadata6865">
    <rdf:RDF>
      <cc:Work
         rdf:about="">
        <dc:format>image/svg+xml</dc:format>
        <dc:type
           rdf:resource="http://purl.org/dc/dcmitype/StillImage" />
      </cc:Work>
    </rdf:RDF>
  </metadata>
  <g
     transform="matrix(0.73684208,0,0,0.42857134,-1.6842104,10.857146)"
     id="g3712-3-7"
     style="opacity:0.35">
    <rect
       width="5"
       height="7"
       x="38"
       y="40"
       id="rect2801-0-7"
       style="fill:url(#radialGradient4002-4);fill-opacity:1;stroke:none" />
    <rect
       width="5"
       height="7"
       x="-10"
       y="-47"
       transform="scale(-1)"
       id="rect3696-2-67"
       style="fill:url(#radialGradient4004-0);fill-opacity:1;stroke:none" />
    <rect
       width="28"
       height="7.0000005"
       x="10"
       y="40"
       id="rect3700-1-3"
       style="fill:url(#linearGradient4006-7);fill-opacity:1;stroke:none" />
  </g>
  <path
     id="rect5505-6"
     style="color:#000000;display:inline;overflow:visible;visibility:visible;fill:url(#linearGradient4059-1-7);fill-opacity:1;fill-rule:nonzero;stroke:none;stroke-width:1;marker:none;enable-background:accumulate"
     d="m 5.5,3.9716814 c -1.385,0 -2.5,1.115 -2.5,2.5 V 26.471681 c 0,1.385 1.115,2.5 2.5,2.5 h 21 c 1.385,0 2.5,-1.115 2.5,-2.5 V 6.4716814 c 0,-1.385 -1.115,-2.5 -2.5,-2.5 z" />
  <rect
     width="25"
     height="24"
     rx="2"
     ry="2"
     x="3.5"
     y="4.5"
     id="rect6741-7-4-56"
     style="fill:none;stroke:url(#linearGradient3223-6);stroke-width:1;stroke-linecap:round;stroke-linejoin:round;stroke-miterlimit:4;stroke-dasharray:none;stroke-dashoffset:0;stroke-opacity:1" />
  <rect
     width="28"
     height="1.5"
     rx="0"
     ry="0"
     x="2"
     y="10"
     id="rect3508-3"
     style="display:inline;overflow:visible;visibility:visible;opacity:0.3;fill:url(#linearGradient4056-5);fill-opacity:1;fill-rule:nonzero;stroke:none;stroke-width:1;marker:none;enable-background:accumulate" />
  <path
     id="rect5505-3-9"
     style="color:#000000;font-variation-settings:normal;display:inline;overflow:visible;visibility:visible;vector-effect:none;fill:url(#linearGradient2006-9);fill-opacity:1;fill-rule:nonzero;stroke:#a10705;stroke-width:1;stroke-linecap:butt;stroke-linejoin:miter;stroke-miterlimit:4;stroke-dasharray:none;stroke-dashoffset:0;stroke-opacity:0.501961;-inkscape-stroke:none;marker:none;enable-background:accumulate;stop-color:#000000"
     d="m 5.5,2.5 c -1.662,0 -3,1.338 -3,3 v 4 h 27 v -4 c 0,-1.662 -1.338,-3 -3,-3 z" />
  <path
     d="M 5.3067917,3.5004911 C 4.5731021,3.5004911 3.5,4.3951217 3.5,5.1872569 V 8.5 h 25 V 5.2195089 c 0,-0.7776183 -0.972327,-1.7190178 -1.864181,-1.7190178 z"
     id="rect6741-7-4-5-4"
     style="opacity:0.35;fill:none;stroke:url(#linearGradient4307-1);stroke-width:1;stroke-linecap:round;stroke-linejoin:miter;stroke-miterlimit:4;stroke-dasharray:none;stroke-dashoffset:0;stroke-opacity:1" />
  <path
     id="path4682-6-1-8"
     style="color:#000000;display:inline;overflow:visible;visibility:visible;opacity:0.15;fill:#ffffff;fill-opacity:1;fill-rule:nonzero;stroke:none;stroke-width:1.5;marker:none;enable-background:accumulate"
     d="m 6.5097656,6.75 c -0.375,0 -0.75,0.2500001 -0.75,0.75 0,0.9999997 1.5,0.9999997 1.5,0 0,-0.4999999 -0.3749999,-0.75 -0.75,-0.75 z M 25.5,6.75 c -0.375,0 -0.75,0.2500001 -0.75,0.75 0,0.9999997 1.5,0.9999997 1.5,0 0,-0.4999999 -0.375,-0.75 -0.75,-0.75 z" />
  <path
     id="path4682-6-1-2-1"
     style="color:#000000;font-variation-settings:normal;display:inline;overflow:visible;visibility:visible;opacity:0.4;vector-effect:none;fill:#7a0000;fill-opacity:1;fill-rule:nonzero;stroke:none;stroke-width:1.5;stroke-linecap:butt;stroke-linejoin:miter;stroke-miterlimit:4;stroke-dasharray:none;stroke-dashoffset:0;stroke-opacity:1;-inkscape-stroke:none;marker:none;enable-background:accumulate;stop-color:#000000"
     d="m 6.5097656,5.75 c -0.375,0 -0.75,0.2500001 -0.75,0.75 0,0.9999997 1.5,0.9999997 1.5,0 0,-0.4999999 -0.3749999,-0.75 -0.75,-0.75 z M 25.5,5.75 c -0.375,0 -0.75,0.2500001 -0.75,0.75 0,0.9999997 1.5,0.9999997 1.5,0 0,-0.4999999 -0.375,-0.75 -0.75,-0.75 z" />
  <path
     id="rect886-2"
     style="opacity:0.3;fill:none;stroke:#000000;stroke-width:1.00151;stroke-opacity:1;stop-color:#000000"
     d="M 2.5,9.9558058 V 26.455806 c 0,1.662 1.338,3 3,3 h 21 c 1.662,0 3,-1.338 3,-3 V 9.9558058" />
  <path
     id="path34-5-9"
     style="opacity:0.3;fill:#3d211b;stroke-width:0.999998"
     d="M 11.505859 13.255859 C 11.091635 13.255859 10.755859 13.591636 10.755859 14.005859 C 10.755859 14.420084 11.091635 14.755859 11.505859 14.755859 C 11.920085 14.755859 12.255859 14.420084 12.255859 14.005859 C 12.255859 13.591636 11.920085 13.255859 11.505859 13.255859 z M 16.005859 13.255859 C 15.591635 13.255859 15.255859 13.591636 15.255859 14.005859 C 15.255859 14.420084 15.591635 14.755859 16.005859 14.755859 C 16.420085 14.755859 16.755859 14.420084 16.755859 14.005859 C 16.755859 13.591636 16.420085 13.255859 16.005859 13.255859 z M 20.505859 13.255859 C 20.091635 13.255859 19.755859 13.591636 19.755859 14.005859 C 19.755859 14.420084 20.091635 14.755859 20.505859 14.755859 C 20.920085 14.755859 21.255859 14.420084 21.255859 14.005859 C 21.255859 13.591636 20.920085 13.255859 20.505859 13.255859 z M 25.005859 13.255859 C 24.591635 13.255859 24.255859 13.591636 24.255859 14.005859 C 24.255859 14.420084 24.591635 14.755859 25.005859 14.755859 C 25.420085 14.755859 25.755859 14.420084 25.755859 14.005859 C 25.755859 13.591636 25.420085 13.255859 25.005859 13.255859 z M 7.0058594 18.25 C 6.5916354 18.25 6.2558594 18.585777 6.2558594 19 C 6.2558594 19.414224 6.5916354 19.75 7.0058594 19.75 C 7.4200854 19.75 7.7558594 19.414224 7.7558594 19 C 7.7558594 18.585777 7.4200854 18.25 7.0058594 18.25 z M 11.505859 18.25 C 11.091635 18.25 10.755859 18.585777 10.755859 19 C 10.755859 19.414224 11.091635 19.75 11.505859 19.75 C 11.920085 19.75 12.255859 19.414224 12.255859 19 C 12.255859 18.585777 11.920085 18.25 11.505859 18.25 z M 16.005859 18.25 C 15.591635 18.25 15.255859 18.585777 15.255859 19 C 15.255859 19.414224 15.591635 19.75 16.005859 19.75 C 16.420085 19.75 16.755859 19.414224 16.755859 19 C 16.755859 18.585777 16.420085 18.25 16.005859 18.25 z M 25.005859 18.25 C 24.591635 18.25 24.255859 18.585777 24.255859 19 C 24.255859 19.414224 24.591635 19.75 25.005859 19.75 C 25.420085 19.75 25.755859 19.414224 25.755859 19 C 25.755859 18.585777 25.420085 18.25 25.005859 18.25 z M 7.0058594 23.255859 C 6.5916354 23.255859 6.2558594 23.591636 6.2558594 24.005859 C 6.2558594 24.420084 6.5916354 24.755859 7.0058594 24.755859 C 7.4200854 24.755859 7.7558594 24.420084 7.7558594 24.005859 C 7.7558594 23.591636 7.4200854 23.255859 7.0058594 23.255859 z M 11.505859 23.255859 C 11.091635 23.255859 10.755859 23.591636 10.755859 24.005859 C 10.755859 24.420084 11.091635 24.755859 11.505859 24.755859 C 11.920085 24.755859 12.255859 24.420084 12.255859 24.005859 C 12.255859 23.591636 11.920085 23.255859 11.505859 23.255859 z M 16.005859 23.255859 C 15.591635 23.255859 15.255859 23.591636 15.255859 24.005859 C 15.255859 24.420084 15.591635 24.755859 16.005859 24.755859 C 16.420085 24.755859 16.755859 24.420084 16.755859 24.005859 C 16.755859 23.591636 16.420085 23.255859 16.005859 23.255859 z M 20.505859 23.255859 C 20.091635 23.255859 19.755859 23.591636 19.755859 24.005859 C 19.755859 24.420084 20.091635 24.755859 20.505859 24.755859 C 20.920085 24.755859 21.255859 24.420084 21.255859 24.005859 C 21.255859 23.591636 20.920085 23.255859 20.505859 23.255859 z " />
  <path
     id="path1-8-3-3"
     style="opacity:0.07;fill:#c6262e;stroke:none;stroke-width:0.999999;stroke-linecap:round;stroke-linejoin:round;stroke-dasharray:none;stroke-opacity:1"
     d="m 19.732422,17.632812 c -1.598131,0.470156 -2.265166,2.645917 -1.170715,3.913301 1.00277,1.370719 3.344595,1.176057 4.107422,-0.344179 0.884849,-1.451859 -0.192632,-3.546294 -1.892096,-3.665896 -0.352102,-0.06494 -0.700378,0.0282 -1.044611,0.09677 z" />
  <circle
     style="fill:#c6262e;stroke:none;stroke-width:0.999999;stroke-linecap:round;stroke-linejoin:round;stroke-dasharray:none;stroke-opacity:1;opacity:0.15"
     id="path1-8-3"
     cx="20.5"
     cy="20"
     r="1.5" />
  <circle
     style="fill:#c6262e;stroke:none;stroke-width:0.999998;stroke-linecap:round;stroke-linejoin:round;stroke-dasharray:none;stroke-opacity:1"
     id="path1-8"
     cx="20.5"
     cy="19"
     r="1.5" />
  <path
     id="path34-5-9-4"
     style="opacity:0.1;fill:#ffffff;stroke-width:0.999998;fill-opacity:1"
     d="m 11.505859,14.256 c -0.414224,0 -0.75,0.335777 -0.75,0.75 0,0.414225 0.335776,0.75 0.75,0.75 0.414226,0 0.75,-0.335775 0.75,-0.75 0,-0.414223 -0.335774,-0.75 -0.75,-0.75 z m 4.5,0 c -0.414224,0 -0.75,0.335777 -0.75,0.75 0,0.414225 0.335776,0.75 0.75,0.75 0.414226,0 0.75,-0.335775 0.75,-0.75 0,-0.414223 -0.335774,-0.75 -0.75,-0.75 z m 4.5,0 c -0.414224,0 -0.75,0.335777 -0.75,0.75 0,0.414225 0.335776,0.75 0.75,0.75 0.414226,0 0.75,-0.335775 0.75,-0.75 0,-0.414223 -0.335774,-0.75 -0.75,-0.75 z m 4.5,0 c -0.414224,0 -0.75,0.335777 -0.75,0.75 0,0.414225 0.335776,0.75 0.75,0.75 0.414226,0 0.75,-0.335775 0.75,-0.75 0,-0.414223 -0.335774,-0.75 -0.75,-0.75 z M 7.0058594,19.250141 c -0.414224,0 -0.75,0.335777 -0.75,0.75 0,0.414224 0.335776,0.75 0.75,0.75 0.414226,0 0.75,-0.335776 0.75,-0.75 0,-0.414223 -0.335774,-0.75 -0.75,-0.75 z m 4.4999996,0 c -0.414224,0 -0.75,0.335777 -0.75,0.75 0,0.414224 0.335776,0.75 0.75,0.75 0.414226,0 0.75,-0.335776 0.75,-0.75 0,-0.414223 -0.335774,-0.75 -0.75,-0.75 z m 4.5,0 c -0.414224,0 -0.75,0.335777 -0.75,0.75 0,0.414224 0.335776,0.75 0.75,0.75 0.414226,0 0.75,-0.335776 0.75,-0.75 0,-0.414223 -0.335774,-0.75 -0.75,-0.75 z m 9,0 c -0.414224,0 -0.75,0.335777 -0.75,0.75 0,0.414224 0.335776,0.75 0.75,0.75 0.414226,0 0.75,-0.335776 0.75,-0.75 0,-0.414223 -0.335774,-0.75 -0.75,-0.75 z M 7.0058594,24.256 c -0.414224,0 -0.75,0.335777 -0.75,0.75 0,0.414225 0.335776,0.75 0.75,0.75 0.414226,0 0.75,-0.335775 0.75,-0.75 0,-0.414223 -0.335774,-0.75 -0.75,-0.75 z m 4.4999996,0 c -0.414224,0 -0.75,0.335777 -0.75,0.75 0,0.414225 0.335776,0.75 0.75,0.75 0.414226,0 0.75,-0.335775 0.75,-0.75 0,-0.414223 -0.335774,-0.75 -0.75,-0.75 z m 4.5,0 c -0.414224,0 -0.75,0.335777 -0.75,0.75 0,0.414225 0.335776,0.75 0.75,0.75 0.414226,0 0.75,-0.335775 0.75,-0.75 0,-0.414223 -0.335774,-0.75 -0.75,-0.75 z m 4.5,0 c -0.414224,0 -0.75,0.335777 -0.75,0.75 0,0.414225 0.335776,0.75 0.75,0.75 0.414226,0 0.75,-0.335775 0.75,-0.75 0,-0.414223 -0.335774,-0.75 -0.75,-0.75 z" />
</svg>
