<?xml version="1.0" encoding="UTF-8" standalone="no"?>
<svg
   xmlns:dc="http://purl.org/dc/elements/1.1/"
   xmlns:cc="http://creativecommons.org/ns#"
   xmlns:rdf="http://www.w3.org/1999/02/22-rdf-syntax-ns#"
   xmlns:svg="http://www.w3.org/2000/svg"
   xmlns="http://www.w3.org/2000/svg"
   xmlns:sodipodi="http://sodipodi.sourceforge.net/DTD/sodipodi-0.dtd"
   xmlns:inkscape="http://www.inkscape.org/namespaces/inkscape"
   height="16.04"
   width="16"
   version="1.1"
   id="svg6"
   sodipodi:docname="event-wedding-symbolic.svg"
   inkscape:version="0.92.3 (2405546, 2018-03-11)">
  <metadata
     id="metadata12">
    <rdf:RDF>
      <cc:Work
         rdf:about="">
        <dc:format>image/svg+xml</dc:format>
        <dc:type
           rdf:resource="http://purl.org/dc/dcmitype/StillImage" />
        <dc:title></dc:title>
      </cc:Work>
    </rdf:RDF>
  </metadata>
  <defs
     id="defs10" />
  <sodipodi:namedview
     pagecolor="#ffffff"
     bordercolor="#666666"
     borderopacity="1"
     objecttolerance="10"
     gridtolerance="10"
     guidetolerance="10"
     inkscape:pageopacity="0"
     inkscape:pageshadow="2"
     inkscape:window-width="3200"
     inkscape:window-height="1674"
     id="namedview8"
     showgrid="false"
     showborder="false"
     inkscape:zoom="2"
     inkscape:cx="8"
     inkscape:cy="8.0200005"
     inkscape:window-x="0"
     inkscape:window-y="60"
     inkscape:window-maximized="1"
     inkscape:current-layer="svg6">
    <inkscape:grid
       type="xygrid"
       id="grid835" />
  </sodipodi:namedview>
  <path
     style="fill:#555761;stroke:none;stroke-width:1px;stroke-linecap:butt;stroke-linejoin:miter;stroke-opacity:1"
     d="M 6 0.0390625 L 4 2.0390625 L 7.0078125 5.65625 A 4.5 4.5 0 0 1 8 5.5390625 A 4.5 4.5 0 0 1 8.9921875 5.6542969 L 12 2.0390625 L 10 0.0390625 L 6 0.0390625 z M 10.972656 4.8339844 L 9.9941406 6.0117188 A 4.5 4.5 0 0 1 12.5 10.039062 A 4.5 4.5 0 0 1 8 14.539062 A 4.5 4.5 0 0 1 3.5 10.039062 A 4.5 4.5 0 0 1 6.0039062 6.0097656 L 5.0273438 4.8359375 A 6 6 0 0 0 2 10.039062 A 6 6 0 0 0 8 16.039062 A 6 6 0 0 0 14 10.039062 A 6 6 0 0 0 10.972656 4.8339844 z "
     id="path841" />
</svg>
