<?xml version="1.0" encoding="UTF-8" standalone="no"?>
<svg
   xmlns:dc="http://purl.org/dc/elements/1.1/"
   xmlns:cc="http://creativecommons.org/ns#"
   xmlns:rdf="http://www.w3.org/1999/02/22-rdf-syntax-ns#"
   xmlns:svg="http://www.w3.org/2000/svg"
   xmlns="http://www.w3.org/2000/svg"
   id="svg6"
   version="1.1"
   width="16"
   height="16.04">
  <metadata
     id="metadata12">
    <rdf:RDF>
      <cc:Work
         rdf:about="">
        <dc:format>image/svg+xml</dc:format>
        <dc:type
           rdf:resource="http://purl.org/dc/dcmitype/StillImage" />
        <dc:title></dc:title>
      </cc:Work>
    </rdf:RDF>
  </metadata>
  <defs
     id="defs10" />
  <path
     id="path841"
     d="M 6 0.0390625 L 4 2.0390625 L 7.0078125 5.65625 A 4.5 4.5 0 0 1 8 5.5390625 A 4.5 4.5 0 0 1 8.9921875 5.6542969 L 12 2.0390625 L 10 0.0390625 L 6 0.0390625 z M 6.4140625 1.0390625 L 9.5859375 1.0390625 L 10.646484 2.1015625 L 8.59375 4.5742188 A 5.5 5.5 0 0 0 8 4.5390625 A 5.5 5.5 0 0 0 7.4101562 4.578125 L 5.3535156 2.1015625 L 6.4140625 1.0390625 z M 10.972656 4.8339844 L 9.9941406 6.0117188 A 4.5 4.5 0 0 1 12.5 10.039062 A 4.5 4.5 0 0 1 8 14.539062 A 4.5 4.5 0 0 1 3.5 10.039062 A 4.5 4.5 0 0 1 6.0039062 6.0097656 L 5.0273438 4.8359375 A 6 6 0 0 0 2 10.039062 A 6 6 0 0 0 8 16.039062 A 6 6 0 0 0 14 10.039062 A 6 6 0 0 0 10.972656 4.8339844 z "
     style="fill:#555761;stroke:none;stroke-width:1px;stroke-linecap:butt;stroke-linejoin:miter;stroke-opacity:1" />
</svg>
